<mxfile host="Electron" modified="2023-12-01T02:09:49.026Z" agent="Mozilla/5.0 (Windows NT 10.0; Win64; x64) AppleWebKit/537.36 (KHTML, like Gecko) draw.io/21.6.8 Chrome/114.0.5735.289 Electron/25.5.0 Safari/537.36" etag="ld1_SNdZpxmMY09VkeAU" version="21.6.8" type="device">
  <diagram id="R2lEEEUBdFMjLlhIrx00" name="Page-1">
    <mxGraphModel dx="1290" dy="669" grid="1" gridSize="10" guides="1" tooltips="1" connect="1" arrows="1" fold="1" page="1" pageScale="1" pageWidth="850" pageHeight="1100" math="0" shadow="0" extFonts="Permanent Marker^https://fonts.googleapis.com/css?family=Permanent+Marker">
      <root>
        <mxCell id="0" />
        <mxCell id="1" parent="0" />
        <mxCell id="-VH7NEpkSDz--kf-uD0C-1" value="name" style="ellipse;whiteSpace=wrap;html=1;" parent="1" vertex="1">
          <mxGeometry x="110" y="30" width="130" height="60" as="geometry" />
        </mxCell>
        <mxCell id="RcjGKaYH8sQql2n4OETO-35" style="edgeStyle=orthogonalEdgeStyle;rounded=0;orthogonalLoop=1;jettySize=auto;html=1;entryX=0;entryY=0.5;entryDx=0;entryDy=0;" edge="1" parent="1" source="-VH7NEpkSDz--kf-uD0C-2" target="-VH7NEpkSDz--kf-uD0C-22">
          <mxGeometry relative="1" as="geometry" />
        </mxCell>
        <mxCell id="-VH7NEpkSDz--kf-uD0C-2" value="auth_group" style="rounded=0;whiteSpace=wrap;html=1;" parent="1" vertex="1">
          <mxGeometry x="170" y="130" width="170" height="60" as="geometry" />
        </mxCell>
        <mxCell id="-VH7NEpkSDz--kf-uD0C-3" value="" style="endArrow=none;html=1;rounded=0;exitX=0.25;exitY=0;exitDx=0;exitDy=0;" parent="1" source="-VH7NEpkSDz--kf-uD0C-2" target="-VH7NEpkSDz--kf-uD0C-1" edge="1">
          <mxGeometry width="50" height="50" relative="1" as="geometry">
            <mxPoint x="470" y="360" as="sourcePoint" />
            <mxPoint x="520" y="310" as="targetPoint" />
          </mxGeometry>
        </mxCell>
        <mxCell id="-VH7NEpkSDz--kf-uD0C-4" value="&lt;u&gt;id&lt;/u&gt;" style="ellipse;whiteSpace=wrap;html=1;" parent="1" vertex="1">
          <mxGeometry x="270" y="30" width="130" height="60" as="geometry" />
        </mxCell>
        <mxCell id="-VH7NEpkSDz--kf-uD0C-5" value="" style="endArrow=none;html=1;rounded=0;exitX=0.75;exitY=0;exitDx=0;exitDy=0;" parent="1" source="-VH7NEpkSDz--kf-uD0C-2" target="-VH7NEpkSDz--kf-uD0C-4" edge="1">
          <mxGeometry width="50" height="50" relative="1" as="geometry">
            <mxPoint x="470" y="260" as="sourcePoint" />
            <mxPoint x="520" y="210" as="targetPoint" />
          </mxGeometry>
        </mxCell>
        <mxCell id="RcjGKaYH8sQql2n4OETO-10" style="edgeStyle=orthogonalEdgeStyle;rounded=0;orthogonalLoop=1;jettySize=auto;html=1;entryX=0;entryY=0.5;entryDx=0;entryDy=0;" edge="1" parent="1" source="-VH7NEpkSDz--kf-uD0C-7" target="-VH7NEpkSDz--kf-uD0C-27">
          <mxGeometry relative="1" as="geometry" />
        </mxCell>
        <mxCell id="-VH7NEpkSDz--kf-uD0C-7" value="villabetel_product" style="rounded=0;whiteSpace=wrap;html=1;" parent="1" vertex="1">
          <mxGeometry x="170" y="360" width="170" height="60" as="geometry" />
        </mxCell>
        <mxCell id="-VH7NEpkSDz--kf-uD0C-8" value="&lt;u&gt;id&lt;/u&gt;" style="ellipse;whiteSpace=wrap;html=1;" parent="1" vertex="1">
          <mxGeometry x="30" y="210" width="120" height="60" as="geometry" />
        </mxCell>
        <mxCell id="-VH7NEpkSDz--kf-uD0C-9" value="name" style="ellipse;whiteSpace=wrap;html=1;" parent="1" vertex="1">
          <mxGeometry x="10" y="300" width="120" height="60" as="geometry" />
        </mxCell>
        <mxCell id="-VH7NEpkSDz--kf-uD0C-10" value="description" style="ellipse;whiteSpace=wrap;html=1;" parent="1" vertex="1">
          <mxGeometry x="10" y="390" width="120" height="60" as="geometry" />
        </mxCell>
        <mxCell id="-VH7NEpkSDz--kf-uD0C-11" value="price" style="ellipse;whiteSpace=wrap;html=1;" parent="1" vertex="1">
          <mxGeometry x="40" y="480" width="120" height="60" as="geometry" />
        </mxCell>
        <mxCell id="-VH7NEpkSDz--kf-uD0C-12" value="&lt;u&gt;category_id&lt;/u&gt;" style="ellipse;whiteSpace=wrap;html=1;" parent="1" vertex="1">
          <mxGeometry x="300" y="250" width="120" height="60" as="geometry" />
        </mxCell>
        <mxCell id="-VH7NEpkSDz--kf-uD0C-15" value="" style="endArrow=none;html=1;rounded=0;exitX=0.25;exitY=0;exitDx=0;exitDy=0;entryX=1;entryY=1;entryDx=0;entryDy=0;" parent="1" source="-VH7NEpkSDz--kf-uD0C-7" target="-VH7NEpkSDz--kf-uD0C-8" edge="1">
          <mxGeometry width="50" height="50" relative="1" as="geometry">
            <mxPoint x="200" y="500" as="sourcePoint" />
            <mxPoint x="151" y="247" as="targetPoint" />
          </mxGeometry>
        </mxCell>
        <mxCell id="-VH7NEpkSDz--kf-uD0C-16" value="" style="endArrow=none;html=1;rounded=0;entryX=1;entryY=0.5;entryDx=0;entryDy=0;exitX=0;exitY=0;exitDx=0;exitDy=0;" parent="1" source="-VH7NEpkSDz--kf-uD0C-7" target="-VH7NEpkSDz--kf-uD0C-9" edge="1">
          <mxGeometry width="50" height="50" relative="1" as="geometry">
            <mxPoint x="400" y="360" as="sourcePoint" />
            <mxPoint x="450" y="310" as="targetPoint" />
          </mxGeometry>
        </mxCell>
        <mxCell id="-VH7NEpkSDz--kf-uD0C-17" value="" style="endArrow=none;html=1;rounded=0;entryX=1;entryY=0.5;entryDx=0;entryDy=0;exitX=0;exitY=0.75;exitDx=0;exitDy=0;" parent="1" source="-VH7NEpkSDz--kf-uD0C-7" target="-VH7NEpkSDz--kf-uD0C-10" edge="1">
          <mxGeometry width="50" height="50" relative="1" as="geometry">
            <mxPoint x="170" y="500" as="sourcePoint" />
            <mxPoint x="220" y="450" as="targetPoint" />
          </mxGeometry>
        </mxCell>
        <mxCell id="-VH7NEpkSDz--kf-uD0C-18" value="" style="endArrow=none;html=1;rounded=0;exitX=0.773;exitY=0.077;exitDx=0;exitDy=0;exitPerimeter=0;entryX=0.25;entryY=1;entryDx=0;entryDy=0;" parent="1" source="-VH7NEpkSDz--kf-uD0C-11" target="-VH7NEpkSDz--kf-uD0C-7" edge="1">
          <mxGeometry width="50" height="50" relative="1" as="geometry">
            <mxPoint x="400" y="360" as="sourcePoint" />
            <mxPoint x="450" y="310" as="targetPoint" />
          </mxGeometry>
        </mxCell>
        <mxCell id="-VH7NEpkSDz--kf-uD0C-19" value="" style="endArrow=none;html=1;rounded=0;entryX=0.5;entryY=1;entryDx=0;entryDy=0;exitX=0.75;exitY=0;exitDx=0;exitDy=0;" parent="1" source="-VH7NEpkSDz--kf-uD0C-7" target="-VH7NEpkSDz--kf-uD0C-12" edge="1">
          <mxGeometry width="50" height="50" relative="1" as="geometry">
            <mxPoint x="50" y="640" as="sourcePoint" />
            <mxPoint x="100" y="590" as="targetPoint" />
          </mxGeometry>
        </mxCell>
        <mxCell id="-VH7NEpkSDz--kf-uD0C-22" value="villabetel_userprofilegroup" style="rounded=0;whiteSpace=wrap;html=1;" parent="1" vertex="1">
          <mxGeometry x="450" y="130" width="170" height="60" as="geometry" />
        </mxCell>
        <mxCell id="-VH7NEpkSDz--kf-uD0C-23" value="&lt;u&gt;id&lt;/u&gt;" style="ellipse;whiteSpace=wrap;html=1;" parent="1" vertex="1">
          <mxGeometry x="425" y="30" width="120" height="60" as="geometry" />
        </mxCell>
        <mxCell id="-VH7NEpkSDz--kf-uD0C-24" value="&lt;u&gt;group_id&lt;/u&gt;" style="ellipse;whiteSpace=wrap;html=1;" parent="1" vertex="1">
          <mxGeometry x="580" y="30" width="120" height="60" as="geometry" />
        </mxCell>
        <mxCell id="-VH7NEpkSDz--kf-uD0C-25" value="&lt;u&gt;user_id&lt;/u&gt;" style="ellipse;whiteSpace=wrap;html=1;" parent="1" vertex="1">
          <mxGeometry x="660" y="100" width="120" height="60" as="geometry" />
        </mxCell>
        <mxCell id="-VH7NEpkSDz--kf-uD0C-26" value="" style="endArrow=none;html=1;rounded=0;entryX=0.22;entryY=0.923;entryDx=0;entryDy=0;entryPerimeter=0;exitX=0.75;exitY=0;exitDx=0;exitDy=0;" parent="1" source="-VH7NEpkSDz--kf-uD0C-22" target="-VH7NEpkSDz--kf-uD0C-24" edge="1">
          <mxGeometry width="50" height="50" relative="1" as="geometry">
            <mxPoint x="400" y="360" as="sourcePoint" />
            <mxPoint x="450" y="310" as="targetPoint" />
          </mxGeometry>
        </mxCell>
        <mxCell id="-VH7NEpkSDz--kf-uD0C-27" value="villabetel_productquantity" style="rounded=0;whiteSpace=wrap;html=1;" parent="1" vertex="1">
          <mxGeometry x="345" y="470" width="170" height="60" as="geometry" />
        </mxCell>
        <mxCell id="-VH7NEpkSDz--kf-uD0C-28" value="&lt;u&gt;product_id&lt;/u&gt;" style="ellipse;whiteSpace=wrap;html=1;" parent="1" vertex="1">
          <mxGeometry x="395" y="370" width="120" height="60" as="geometry" />
        </mxCell>
        <mxCell id="-VH7NEpkSDz--kf-uD0C-29" value="&lt;u&gt;account_id&lt;/u&gt;" style="ellipse;whiteSpace=wrap;html=1;" parent="1" vertex="1">
          <mxGeometry x="420" y="580" width="120" height="60" as="geometry" />
        </mxCell>
        <mxCell id="-VH7NEpkSDz--kf-uD0C-30" value="" style="endArrow=none;html=1;rounded=0;exitX=0.5;exitY=0;exitDx=0;exitDy=0;entryX=0.5;entryY=1;entryDx=0;entryDy=0;" parent="1" source="-VH7NEpkSDz--kf-uD0C-27" target="-VH7NEpkSDz--kf-uD0C-28" edge="1">
          <mxGeometry width="50" height="50" relative="1" as="geometry">
            <mxPoint x="400" y="360" as="sourcePoint" />
            <mxPoint x="450" y="310" as="targetPoint" />
          </mxGeometry>
        </mxCell>
        <mxCell id="-VH7NEpkSDz--kf-uD0C-31" value="" style="endArrow=none;html=1;rounded=0;exitX=0.5;exitY=0;exitDx=0;exitDy=0;entryX=0.75;entryY=1;entryDx=0;entryDy=0;" parent="1" source="-VH7NEpkSDz--kf-uD0C-29" target="-VH7NEpkSDz--kf-uD0C-27" edge="1">
          <mxGeometry width="50" height="50" relative="1" as="geometry">
            <mxPoint x="400" y="360" as="sourcePoint" />
            <mxPoint x="450" y="310" as="targetPoint" />
          </mxGeometry>
        </mxCell>
        <mxCell id="-VH7NEpkSDz--kf-uD0C-32" value="" style="endArrow=none;html=1;rounded=0;entryX=0.5;entryY=1;entryDx=0;entryDy=0;exitX=0.25;exitY=0;exitDx=0;exitDy=0;" parent="1" source="-VH7NEpkSDz--kf-uD0C-22" target="-VH7NEpkSDz--kf-uD0C-23" edge="1">
          <mxGeometry width="50" height="50" relative="1" as="geometry">
            <mxPoint x="400" y="360" as="sourcePoint" />
            <mxPoint x="450" y="310" as="targetPoint" />
          </mxGeometry>
        </mxCell>
        <mxCell id="-VH7NEpkSDz--kf-uD0C-33" value="" style="endArrow=none;html=1;rounded=0;entryX=0;entryY=0.5;entryDx=0;entryDy=0;exitX=1;exitY=0.25;exitDx=0;exitDy=0;" parent="1" source="-VH7NEpkSDz--kf-uD0C-22" target="-VH7NEpkSDz--kf-uD0C-25" edge="1">
          <mxGeometry width="50" height="50" relative="1" as="geometry">
            <mxPoint x="400" y="360" as="sourcePoint" />
            <mxPoint x="450" y="310" as="targetPoint" />
          </mxGeometry>
        </mxCell>
        <mxCell id="-VH7NEpkSDz--kf-uD0C-34" value="&lt;u&gt;id&lt;/u&gt;" style="ellipse;whiteSpace=wrap;html=1;" parent="1" vertex="1">
          <mxGeometry x="300" y="550" width="120" height="60" as="geometry" />
        </mxCell>
        <mxCell id="-VH7NEpkSDz--kf-uD0C-35" value="" style="endArrow=none;html=1;rounded=0;exitX=0.5;exitY=0;exitDx=0;exitDy=0;entryX=0.146;entryY=0.997;entryDx=0;entryDy=0;entryPerimeter=0;" parent="1" source="-VH7NEpkSDz--kf-uD0C-34" target="-VH7NEpkSDz--kf-uD0C-27" edge="1">
          <mxGeometry width="50" height="50" relative="1" as="geometry">
            <mxPoint x="400" y="460" as="sourcePoint" />
            <mxPoint x="450" y="410" as="targetPoint" />
          </mxGeometry>
        </mxCell>
        <mxCell id="RcjGKaYH8sQql2n4OETO-36" style="edgeStyle=orthogonalEdgeStyle;rounded=0;orthogonalLoop=1;jettySize=auto;html=1;entryX=1;entryY=0.5;entryDx=0;entryDy=0;" edge="1" parent="1" source="-VH7NEpkSDz--kf-uD0C-44" target="-VH7NEpkSDz--kf-uD0C-22">
          <mxGeometry relative="1" as="geometry">
            <Array as="points">
              <mxPoint x="680" y="290" />
              <mxPoint x="680" y="160" />
            </Array>
          </mxGeometry>
        </mxCell>
        <mxCell id="RcjGKaYH8sQql2n4OETO-58" style="edgeStyle=orthogonalEdgeStyle;rounded=0;orthogonalLoop=1;jettySize=auto;html=1;entryX=1;entryY=0.5;entryDx=0;entryDy=0;" edge="1" parent="1" source="-VH7NEpkSDz--kf-uD0C-44" target="RcjGKaYH8sQql2n4OETO-51">
          <mxGeometry relative="1" as="geometry">
            <Array as="points">
              <mxPoint x="770" y="290" />
              <mxPoint x="770" y="436" />
            </Array>
          </mxGeometry>
        </mxCell>
        <mxCell id="-VH7NEpkSDz--kf-uD0C-44" value="villabetel_userprofile" style="rounded=0;whiteSpace=wrap;html=1;" parent="1" vertex="1">
          <mxGeometry x="790" y="260" width="170" height="60" as="geometry" />
        </mxCell>
        <mxCell id="-VH7NEpkSDz--kf-uD0C-45" value="&lt;u&gt;id&lt;/u&gt;" style="ellipse;whiteSpace=wrap;html=1;" parent="1" vertex="1">
          <mxGeometry x="740" y="150" width="120" height="60" as="geometry" />
        </mxCell>
        <mxCell id="-VH7NEpkSDz--kf-uD0C-46" value="name" style="ellipse;whiteSpace=wrap;html=1;" parent="1" vertex="1">
          <mxGeometry x="790" y="90" width="130" height="60" as="geometry" />
        </mxCell>
        <mxCell id="-VH7NEpkSDz--kf-uD0C-49" value="password" style="ellipse;whiteSpace=wrap;html=1;" parent="1" vertex="1">
          <mxGeometry x="1070" y="100" width="130" height="60" as="geometry" />
        </mxCell>
        <mxCell id="-VH7NEpkSDz--kf-uD0C-50" value="last_login" style="ellipse;whiteSpace=wrap;html=1;" parent="1" vertex="1">
          <mxGeometry x="1130" y="160" width="130" height="60" as="geometry" />
        </mxCell>
        <mxCell id="-VH7NEpkSDz--kf-uD0C-51" value="is_superuser" style="ellipse;whiteSpace=wrap;html=1;" parent="1" vertex="1">
          <mxGeometry x="1060" y="215" width="130" height="60" as="geometry" />
        </mxCell>
        <mxCell id="-VH7NEpkSDz--kf-uD0C-52" value="email" style="ellipse;whiteSpace=wrap;html=1;" parent="1" vertex="1">
          <mxGeometry x="1170" y="256" width="130" height="60" as="geometry" />
        </mxCell>
        <mxCell id="-VH7NEpkSDz--kf-uD0C-53" value="first_name" style="ellipse;whiteSpace=wrap;html=1;" parent="1" vertex="1">
          <mxGeometry x="1050" y="300" width="130" height="60" as="geometry" />
        </mxCell>
        <mxCell id="-VH7NEpkSDz--kf-uD0C-54" value="last_name" style="ellipse;whiteSpace=wrap;html=1;" parent="1" vertex="1">
          <mxGeometry x="1120" y="360" width="130" height="60" as="geometry" />
        </mxCell>
        <mxCell id="-VH7NEpkSDz--kf-uD0C-55" value="slug" style="ellipse;whiteSpace=wrap;html=1;" parent="1" vertex="1">
          <mxGeometry x="1000" y="480" width="130" height="60" as="geometry" />
        </mxCell>
        <mxCell id="-VH7NEpkSDz--kf-uD0C-56" value="document_number" style="ellipse;whiteSpace=wrap;html=1;" parent="1" vertex="1">
          <mxGeometry x="1050" y="420" width="130" height="60" as="geometry" />
        </mxCell>
        <mxCell id="-VH7NEpkSDz--kf-uD0C-57" value="profile_pic" style="ellipse;whiteSpace=wrap;html=1;" parent="1" vertex="1">
          <mxGeometry x="990" y="50" width="130" height="60" as="geometry" />
        </mxCell>
        <mxCell id="-VH7NEpkSDz--kf-uD0C-58" value="register_date" style="ellipse;whiteSpace=wrap;html=1;" parent="1" vertex="1">
          <mxGeometry x="880" y="430" width="130" height="60" as="geometry" />
        </mxCell>
        <mxCell id="-VH7NEpkSDz--kf-uD0C-59" value="is_staff" style="ellipse;whiteSpace=wrap;html=1;" parent="1" vertex="1">
          <mxGeometry x="830" y="490" width="130" height="60" as="geometry" />
        </mxCell>
        <mxCell id="-VH7NEpkSDz--kf-uD0C-60" value="is_active" style="ellipse;whiteSpace=wrap;html=1;" parent="1" vertex="1">
          <mxGeometry x="860" y="30" width="130" height="60" as="geometry" />
        </mxCell>
        <mxCell id="-VH7NEpkSDz--kf-uD0C-61" value="" style="endArrow=none;html=1;rounded=0;exitX=0.5;exitY=1;exitDx=0;exitDy=0;entryX=0.25;entryY=0;entryDx=0;entryDy=0;" parent="1" source="-VH7NEpkSDz--kf-uD0C-45" target="-VH7NEpkSDz--kf-uD0C-44" edge="1">
          <mxGeometry width="50" height="50" relative="1" as="geometry">
            <mxPoint x="940" y="230" as="sourcePoint" />
            <mxPoint x="990" y="180" as="targetPoint" />
          </mxGeometry>
        </mxCell>
        <mxCell id="-VH7NEpkSDz--kf-uD0C-62" value="" style="endArrow=none;html=1;rounded=0;entryX=0.612;entryY=1.003;entryDx=0;entryDy=0;entryPerimeter=0;exitX=0.5;exitY=0;exitDx=0;exitDy=0;" parent="1" source="-VH7NEpkSDz--kf-uD0C-44" target="-VH7NEpkSDz--kf-uD0C-46" edge="1">
          <mxGeometry width="50" height="50" relative="1" as="geometry">
            <mxPoint x="630" y="360" as="sourcePoint" />
            <mxPoint x="680" y="310" as="targetPoint" />
          </mxGeometry>
        </mxCell>
        <mxCell id="-VH7NEpkSDz--kf-uD0C-63" value="" style="endArrow=none;html=1;rounded=0;entryX=0.615;entryY=0.977;entryDx=0;entryDy=0;entryPerimeter=0;exitX=0.661;exitY=-0.003;exitDx=0;exitDy=0;exitPerimeter=0;" parent="1" source="-VH7NEpkSDz--kf-uD0C-44" target="-VH7NEpkSDz--kf-uD0C-60" edge="1">
          <mxGeometry width="50" height="50" relative="1" as="geometry">
            <mxPoint x="630" y="360" as="sourcePoint" />
            <mxPoint x="680" y="310" as="targetPoint" />
          </mxGeometry>
        </mxCell>
        <mxCell id="-VH7NEpkSDz--kf-uD0C-64" value="" style="endArrow=none;html=1;rounded=0;entryX=0;entryY=1;entryDx=0;entryDy=0;exitX=0.75;exitY=0;exitDx=0;exitDy=0;" parent="1" source="-VH7NEpkSDz--kf-uD0C-44" target="-VH7NEpkSDz--kf-uD0C-57" edge="1">
          <mxGeometry width="50" height="50" relative="1" as="geometry">
            <mxPoint x="630" y="360" as="sourcePoint" />
            <mxPoint x="680" y="310" as="targetPoint" />
          </mxGeometry>
        </mxCell>
        <mxCell id="-VH7NEpkSDz--kf-uD0C-65" value="" style="endArrow=none;html=1;rounded=0;entryX=0;entryY=0.5;entryDx=0;entryDy=0;exitX=0.84;exitY=-0.003;exitDx=0;exitDy=0;exitPerimeter=0;" parent="1" source="-VH7NEpkSDz--kf-uD0C-44" target="-VH7NEpkSDz--kf-uD0C-49" edge="1">
          <mxGeometry width="50" height="50" relative="1" as="geometry">
            <mxPoint x="1030" y="200" as="sourcePoint" />
            <mxPoint x="1080" y="150" as="targetPoint" />
          </mxGeometry>
        </mxCell>
        <mxCell id="-VH7NEpkSDz--kf-uD0C-66" value="" style="endArrow=none;html=1;rounded=0;entryX=0;entryY=0.5;entryDx=0;entryDy=0;exitX=1;exitY=0;exitDx=0;exitDy=0;" parent="1" source="-VH7NEpkSDz--kf-uD0C-44" target="-VH7NEpkSDz--kf-uD0C-50" edge="1">
          <mxGeometry width="50" height="50" relative="1" as="geometry">
            <mxPoint x="1050" y="220" as="sourcePoint" />
            <mxPoint x="1100" y="170" as="targetPoint" />
          </mxGeometry>
        </mxCell>
        <mxCell id="-VH7NEpkSDz--kf-uD0C-67" value="" style="endArrow=none;html=1;rounded=0;entryX=0;entryY=0.5;entryDx=0;entryDy=0;exitX=1;exitY=0.25;exitDx=0;exitDy=0;" parent="1" source="-VH7NEpkSDz--kf-uD0C-44" target="-VH7NEpkSDz--kf-uD0C-51" edge="1">
          <mxGeometry width="50" height="50" relative="1" as="geometry">
            <mxPoint x="890" y="390" as="sourcePoint" />
            <mxPoint x="940" y="340" as="targetPoint" />
          </mxGeometry>
        </mxCell>
        <mxCell id="-VH7NEpkSDz--kf-uD0C-68" value="" style="endArrow=none;html=1;rounded=0;entryX=0;entryY=0.5;entryDx=0;entryDy=0;exitX=1;exitY=0.5;exitDx=0;exitDy=0;" parent="1" source="-VH7NEpkSDz--kf-uD0C-44" target="-VH7NEpkSDz--kf-uD0C-52" edge="1">
          <mxGeometry width="50" height="50" relative="1" as="geometry">
            <mxPoint x="930" y="390" as="sourcePoint" />
            <mxPoint x="980" y="340" as="targetPoint" />
          </mxGeometry>
        </mxCell>
        <mxCell id="-VH7NEpkSDz--kf-uD0C-69" value="" style="endArrow=none;html=1;rounded=0;entryX=0;entryY=0.5;entryDx=0;entryDy=0;exitX=1;exitY=0.75;exitDx=0;exitDy=0;" parent="1" source="-VH7NEpkSDz--kf-uD0C-44" target="-VH7NEpkSDz--kf-uD0C-53" edge="1">
          <mxGeometry width="50" height="50" relative="1" as="geometry">
            <mxPoint x="890" y="400" as="sourcePoint" />
            <mxPoint x="940" y="350" as="targetPoint" />
          </mxGeometry>
        </mxCell>
        <mxCell id="-VH7NEpkSDz--kf-uD0C-70" value="" style="endArrow=none;html=1;rounded=0;entryX=0;entryY=0.5;entryDx=0;entryDy=0;exitX=1;exitY=1;exitDx=0;exitDy=0;" parent="1" source="-VH7NEpkSDz--kf-uD0C-44" target="-VH7NEpkSDz--kf-uD0C-54" edge="1">
          <mxGeometry width="50" height="50" relative="1" as="geometry">
            <mxPoint x="910" y="400" as="sourcePoint" />
            <mxPoint x="960" y="350" as="targetPoint" />
          </mxGeometry>
        </mxCell>
        <mxCell id="-VH7NEpkSDz--kf-uD0C-71" value="" style="endArrow=none;html=1;rounded=0;entryX=0;entryY=0;entryDx=0;entryDy=0;exitX=0.873;exitY=0.997;exitDx=0;exitDy=0;exitPerimeter=0;" parent="1" source="-VH7NEpkSDz--kf-uD0C-44" target="-VH7NEpkSDz--kf-uD0C-56" edge="1">
          <mxGeometry width="50" height="50" relative="1" as="geometry">
            <mxPoint x="840" y="400" as="sourcePoint" />
            <mxPoint x="890" y="350" as="targetPoint" />
          </mxGeometry>
        </mxCell>
        <mxCell id="-VH7NEpkSDz--kf-uD0C-72" value="" style="endArrow=none;html=1;rounded=0;entryX=0.271;entryY=0.063;entryDx=0;entryDy=0;entryPerimeter=0;exitX=0.75;exitY=1;exitDx=0;exitDy=0;" parent="1" source="-VH7NEpkSDz--kf-uD0C-44" target="-VH7NEpkSDz--kf-uD0C-55" edge="1">
          <mxGeometry width="50" height="50" relative="1" as="geometry">
            <mxPoint x="830" y="400" as="sourcePoint" />
            <mxPoint x="880" y="350" as="targetPoint" />
          </mxGeometry>
        </mxCell>
        <mxCell id="-VH7NEpkSDz--kf-uD0C-73" value="" style="endArrow=none;html=1;rounded=0;entryX=0.5;entryY=0;entryDx=0;entryDy=0;" parent="1" target="-VH7NEpkSDz--kf-uD0C-58" edge="1">
          <mxGeometry width="50" height="50" relative="1" as="geometry">
            <mxPoint x="900" y="320" as="sourcePoint" />
            <mxPoint x="830" y="380" as="targetPoint" />
          </mxGeometry>
        </mxCell>
        <mxCell id="-VH7NEpkSDz--kf-uD0C-74" value="" style="endArrow=none;html=1;rounded=0;entryX=0.255;entryY=0.07;entryDx=0;entryDy=0;entryPerimeter=0;exitX=0.431;exitY=1.01;exitDx=0;exitDy=0;exitPerimeter=0;" parent="1" source="-VH7NEpkSDz--kf-uD0C-44" target="-VH7NEpkSDz--kf-uD0C-59" edge="1">
          <mxGeometry width="50" height="50" relative="1" as="geometry">
            <mxPoint x="730" y="440" as="sourcePoint" />
            <mxPoint x="780" y="390" as="targetPoint" />
          </mxGeometry>
        </mxCell>
        <mxCell id="-VH7NEpkSDz--kf-uD0C-80" value="1" style="text;html=1;align=center;verticalAlign=middle;resizable=0;points=[];autosize=1;strokeColor=none;fillColor=none;" parent="1" vertex="1">
          <mxGeometry x="340" y="360" width="30" height="30" as="geometry" />
        </mxCell>
        <mxCell id="-VH7NEpkSDz--kf-uD0C-81" value="n" style="text;html=1;align=center;verticalAlign=middle;resizable=0;points=[];autosize=1;strokeColor=none;fillColor=none;" parent="1" vertex="1">
          <mxGeometry x="300" y="470" width="30" height="30" as="geometry" />
        </mxCell>
        <mxCell id="-VH7NEpkSDz--kf-uD0C-82" value="1" style="text;html=1;align=center;verticalAlign=middle;resizable=0;points=[];autosize=1;strokeColor=none;fillColor=none;" parent="1" vertex="1">
          <mxGeometry x="335" y="128" width="30" height="30" as="geometry" />
        </mxCell>
        <mxCell id="-VH7NEpkSDz--kf-uD0C-84" value="n" style="text;html=1;align=center;verticalAlign=middle;resizable=0;points=[];autosize=1;strokeColor=none;fillColor=none;" parent="1" vertex="1">
          <mxGeometry x="415" y="128" width="30" height="30" as="geometry" />
        </mxCell>
        <mxCell id="-VH7NEpkSDz--kf-uD0C-85" value="1" style="text;html=1;align=center;verticalAlign=middle;resizable=0;points=[];autosize=1;strokeColor=none;fillColor=none;" parent="1" vertex="1">
          <mxGeometry x="760" y="260" width="30" height="30" as="geometry" />
        </mxCell>
        <mxCell id="-VH7NEpkSDz--kf-uD0C-86" value="n" style="text;html=1;align=center;verticalAlign=middle;resizable=0;points=[];autosize=1;strokeColor=none;fillColor=none;" parent="1" vertex="1">
          <mxGeometry x="625" y="158" width="30" height="30" as="geometry" />
        </mxCell>
        <mxCell id="RcjGKaYH8sQql2n4OETO-9" style="edgeStyle=orthogonalEdgeStyle;rounded=0;orthogonalLoop=1;jettySize=auto;html=1;entryX=0.5;entryY=1;entryDx=0;entryDy=0;" edge="1" parent="1" source="RcjGKaYH8sQql2n4OETO-2" target="-VH7NEpkSDz--kf-uD0C-7">
          <mxGeometry relative="1" as="geometry" />
        </mxCell>
        <mxCell id="RcjGKaYH8sQql2n4OETO-2" value="villabetel_category" style="rounded=0;whiteSpace=wrap;html=1;" vertex="1" parent="1">
          <mxGeometry x="130" y="610" width="170" height="60" as="geometry" />
        </mxCell>
        <mxCell id="RcjGKaYH8sQql2n4OETO-5" value="name" style="ellipse;whiteSpace=wrap;html=1;" vertex="1" parent="1">
          <mxGeometry x="10" y="690" width="120" height="60" as="geometry" />
        </mxCell>
        <mxCell id="RcjGKaYH8sQql2n4OETO-6" value="" style="endArrow=none;html=1;rounded=0;exitX=0.5;exitY=0;exitDx=0;exitDy=0;entryX=0;entryY=1;entryDx=0;entryDy=0;" edge="1" parent="1" source="RcjGKaYH8sQql2n4OETO-5" target="RcjGKaYH8sQql2n4OETO-2">
          <mxGeometry width="50" height="50" relative="1" as="geometry">
            <mxPoint x="143" y="495" as="sourcePoint" />
            <mxPoint x="223" y="430" as="targetPoint" />
          </mxGeometry>
        </mxCell>
        <mxCell id="RcjGKaYH8sQql2n4OETO-11" value="n" style="text;html=1;align=center;verticalAlign=middle;resizable=0;points=[];autosize=1;strokeColor=none;fillColor=none;" vertex="1" parent="1">
          <mxGeometry x="220" y="430" width="30" height="30" as="geometry" />
        </mxCell>
        <mxCell id="RcjGKaYH8sQql2n4OETO-12" value="1" style="text;html=1;align=center;verticalAlign=middle;resizable=0;points=[];autosize=1;strokeColor=none;fillColor=none;" vertex="1" parent="1">
          <mxGeometry x="210" y="585" width="30" height="30" as="geometry" />
        </mxCell>
        <mxCell id="RcjGKaYH8sQql2n4OETO-13" value="&lt;u&gt;id&lt;/u&gt;" style="ellipse;whiteSpace=wrap;html=1;" vertex="1" parent="1">
          <mxGeometry y="580" width="110" height="60" as="geometry" />
        </mxCell>
        <mxCell id="RcjGKaYH8sQql2n4OETO-14" value="" style="endArrow=none;html=1;rounded=0;entryX=0;entryY=0.25;entryDx=0;entryDy=0;exitX=1;exitY=0.5;exitDx=0;exitDy=0;" edge="1" parent="1" source="RcjGKaYH8sQql2n4OETO-13" target="RcjGKaYH8sQql2n4OETO-2">
          <mxGeometry relative="1" as="geometry">
            <mxPoint x="170" y="700" as="sourcePoint" />
            <mxPoint x="330" y="700" as="targetPoint" />
          </mxGeometry>
        </mxCell>
        <mxCell id="RcjGKaYH8sQql2n4OETO-23" style="edgeStyle=orthogonalEdgeStyle;rounded=0;orthogonalLoop=1;jettySize=auto;html=1;entryX=1;entryY=0.5;entryDx=0;entryDy=0;" edge="1" parent="1" source="RcjGKaYH8sQql2n4OETO-15" target="-VH7NEpkSDz--kf-uD0C-27">
          <mxGeometry relative="1" as="geometry" />
        </mxCell>
        <mxCell id="RcjGKaYH8sQql2n4OETO-15" value="villabetel_account" style="rounded=0;whiteSpace=wrap;html=1;" vertex="1" parent="1">
          <mxGeometry x="575" y="640" width="170" height="60" as="geometry" />
        </mxCell>
        <mxCell id="RcjGKaYH8sQql2n4OETO-16" value="&lt;u&gt;waiter_id&lt;/u&gt;" style="ellipse;whiteSpace=wrap;html=1;" vertex="1" parent="1">
          <mxGeometry x="570" y="550" width="120" height="60" as="geometry" />
        </mxCell>
        <mxCell id="RcjGKaYH8sQql2n4OETO-17" value="&lt;u&gt;table_id&lt;/u&gt;" style="ellipse;whiteSpace=wrap;html=1;" vertex="1" parent="1">
          <mxGeometry x="470" y="770" width="120" height="60" as="geometry" />
        </mxCell>
        <mxCell id="RcjGKaYH8sQql2n4OETO-18" value="" style="endArrow=none;html=1;rounded=0;exitX=0.25;exitY=0;exitDx=0;exitDy=0;entryX=0.5;entryY=1;entryDx=0;entryDy=0;" edge="1" parent="1" source="RcjGKaYH8sQql2n4OETO-15" target="RcjGKaYH8sQql2n4OETO-16">
          <mxGeometry width="50" height="50" relative="1" as="geometry">
            <mxPoint x="630" y="530" as="sourcePoint" />
            <mxPoint x="680" y="480" as="targetPoint" />
          </mxGeometry>
        </mxCell>
        <mxCell id="RcjGKaYH8sQql2n4OETO-19" value="" style="endArrow=none;html=1;rounded=0;exitX=0.5;exitY=0;exitDx=0;exitDy=0;entryX=0.118;entryY=0.987;entryDx=0;entryDy=0;entryPerimeter=0;" edge="1" parent="1" source="RcjGKaYH8sQql2n4OETO-17" target="RcjGKaYH8sQql2n4OETO-15">
          <mxGeometry width="50" height="50" relative="1" as="geometry">
            <mxPoint x="630" y="530" as="sourcePoint" />
            <mxPoint x="680" y="480" as="targetPoint" />
          </mxGeometry>
        </mxCell>
        <mxCell id="RcjGKaYH8sQql2n4OETO-20" value="" style="endArrow=none;html=1;rounded=0;exitX=1;exitY=0.5;exitDx=0;exitDy=0;entryX=0;entryY=1;entryDx=0;entryDy=0;" edge="1" parent="1" target="RcjGKaYH8sQql2n4OETO-15" source="RcjGKaYH8sQql2n4OETO-26">
          <mxGeometry width="50" height="50" relative="1" as="geometry">
            <mxPoint x="590" y="720" as="sourcePoint" />
            <mxPoint x="680" y="580" as="targetPoint" />
          </mxGeometry>
        </mxCell>
        <mxCell id="RcjGKaYH8sQql2n4OETO-24" value="1" style="text;html=1;align=center;verticalAlign=middle;resizable=0;points=[];autosize=1;strokeColor=none;fillColor=none;" vertex="1" parent="1">
          <mxGeometry x="545" y="640" width="30" height="30" as="geometry" />
        </mxCell>
        <mxCell id="RcjGKaYH8sQql2n4OETO-25" value="n" style="text;html=1;align=center;verticalAlign=middle;resizable=0;points=[];autosize=1;strokeColor=none;fillColor=none;" vertex="1" parent="1">
          <mxGeometry x="520" y="470" width="30" height="30" as="geometry" />
        </mxCell>
        <mxCell id="RcjGKaYH8sQql2n4OETO-26" value="&lt;u&gt;id&lt;/u&gt;" style="ellipse;whiteSpace=wrap;html=1;" vertex="1" parent="1">
          <mxGeometry x="420" y="690" width="110" height="60" as="geometry" />
        </mxCell>
        <mxCell id="RcjGKaYH8sQql2n4OETO-27" value="ammount" style="ellipse;whiteSpace=wrap;html=1;" vertex="1" parent="1">
          <mxGeometry x="555" y="821" width="120" height="60" as="geometry" />
        </mxCell>
        <mxCell id="RcjGKaYH8sQql2n4OETO-28" value="state" style="ellipse;whiteSpace=wrap;html=1;" vertex="1" parent="1">
          <mxGeometry x="770" y="770" width="120" height="60" as="geometry" />
        </mxCell>
        <mxCell id="RcjGKaYH8sQql2n4OETO-29" value="timestamp" style="ellipse;whiteSpace=wrap;html=1;" vertex="1" parent="1">
          <mxGeometry x="785" y="700" width="120" height="60" as="geometry" />
        </mxCell>
        <mxCell id="RcjGKaYH8sQql2n4OETO-30" value="price" style="ellipse;whiteSpace=wrap;html=1;" vertex="1" parent="1">
          <mxGeometry x="640" y="770" width="120" height="60" as="geometry" />
        </mxCell>
        <mxCell id="RcjGKaYH8sQql2n4OETO-31" value="" style="endArrow=none;html=1;rounded=0;exitX=1;exitY=0.75;exitDx=0;exitDy=0;entryX=0;entryY=0.5;entryDx=0;entryDy=0;" edge="1" parent="1" source="RcjGKaYH8sQql2n4OETO-15" target="RcjGKaYH8sQql2n4OETO-29">
          <mxGeometry width="50" height="50" relative="1" as="geometry">
            <mxPoint x="540" y="780" as="sourcePoint" />
            <mxPoint x="605" y="709" as="targetPoint" />
          </mxGeometry>
        </mxCell>
        <mxCell id="RcjGKaYH8sQql2n4OETO-32" value="" style="endArrow=none;html=1;rounded=0;exitX=1;exitY=1;exitDx=0;exitDy=0;entryX=0;entryY=0;entryDx=0;entryDy=0;" edge="1" parent="1" source="RcjGKaYH8sQql2n4OETO-15" target="RcjGKaYH8sQql2n4OETO-28">
          <mxGeometry width="50" height="50" relative="1" as="geometry">
            <mxPoint x="755" y="695" as="sourcePoint" />
            <mxPoint x="795" y="740" as="targetPoint" />
          </mxGeometry>
        </mxCell>
        <mxCell id="RcjGKaYH8sQql2n4OETO-33" value="" style="endArrow=none;html=1;rounded=0;exitX=0.75;exitY=1;exitDx=0;exitDy=0;entryX=0.5;entryY=0;entryDx=0;entryDy=0;" edge="1" parent="1" source="RcjGKaYH8sQql2n4OETO-15" target="RcjGKaYH8sQql2n4OETO-30">
          <mxGeometry width="50" height="50" relative="1" as="geometry">
            <mxPoint x="755" y="710" as="sourcePoint" />
            <mxPoint x="798" y="789" as="targetPoint" />
          </mxGeometry>
        </mxCell>
        <mxCell id="RcjGKaYH8sQql2n4OETO-34" value="" style="endArrow=none;html=1;rounded=0;exitX=0.25;exitY=1;exitDx=0;exitDy=0;entryX=0.5;entryY=0;entryDx=0;entryDy=0;" edge="1" parent="1" source="RcjGKaYH8sQql2n4OETO-15" target="RcjGKaYH8sQql2n4OETO-27">
          <mxGeometry width="50" height="50" relative="1" as="geometry">
            <mxPoint x="713" y="710" as="sourcePoint" />
            <mxPoint x="710" y="780" as="targetPoint" />
          </mxGeometry>
        </mxCell>
        <mxCell id="RcjGKaYH8sQql2n4OETO-67" style="edgeStyle=orthogonalEdgeStyle;rounded=0;orthogonalLoop=1;jettySize=auto;html=1;entryX=1;entryY=0.5;entryDx=0;entryDy=0;" edge="1" parent="1" source="RcjGKaYH8sQql2n4OETO-37" target="RcjGKaYH8sQql2n4OETO-15">
          <mxGeometry relative="1" as="geometry" />
        </mxCell>
        <mxCell id="RcjGKaYH8sQql2n4OETO-37" value="villabetel_table" style="rounded=0;whiteSpace=wrap;html=1;" vertex="1" parent="1">
          <mxGeometry x="890" y="631" width="170" height="60" as="geometry" />
        </mxCell>
        <mxCell id="RcjGKaYH8sQql2n4OETO-38" value="number" style="ellipse;whiteSpace=wrap;html=1;" vertex="1" parent="1">
          <mxGeometry x="1020" y="761" width="120" height="60" as="geometry" />
        </mxCell>
        <mxCell id="RcjGKaYH8sQql2n4OETO-39" value="&lt;u&gt;area_id&lt;/u&gt;" style="ellipse;whiteSpace=wrap;html=1;" vertex="1" parent="1">
          <mxGeometry x="1100" y="670" width="120" height="60" as="geometry" />
        </mxCell>
        <mxCell id="RcjGKaYH8sQql2n4OETO-41" value="" style="endArrow=none;html=1;rounded=0;exitX=1;exitY=0.75;exitDx=0;exitDy=0;entryX=0;entryY=0.5;entryDx=0;entryDy=0;" edge="1" parent="1" source="RcjGKaYH8sQql2n4OETO-37" target="RcjGKaYH8sQql2n4OETO-39">
          <mxGeometry width="50" height="50" relative="1" as="geometry">
            <mxPoint x="855" y="771" as="sourcePoint" />
            <mxPoint x="920" y="700" as="targetPoint" />
          </mxGeometry>
        </mxCell>
        <mxCell id="RcjGKaYH8sQql2n4OETO-42" value="" style="endArrow=none;html=1;rounded=0;exitX=0.75;exitY=1;exitDx=0;exitDy=0;entryX=0.5;entryY=0;entryDx=0;entryDy=0;" edge="1" parent="1" source="RcjGKaYH8sQql2n4OETO-37" target="RcjGKaYH8sQql2n4OETO-38">
          <mxGeometry width="50" height="50" relative="1" as="geometry">
            <mxPoint x="1070" y="686" as="sourcePoint" />
            <mxPoint x="1110" y="731" as="targetPoint" />
          </mxGeometry>
        </mxCell>
        <mxCell id="RcjGKaYH8sQql2n4OETO-43" value="" style="endArrow=none;html=1;rounded=0;exitX=0.5;exitY=1;exitDx=0;exitDy=0;entryX=0.5;entryY=0;entryDx=0;entryDy=0;" edge="1" parent="1" source="RcjGKaYH8sQql2n4OETO-37" target="RcjGKaYH8sQql2n4OETO-45">
          <mxGeometry width="50" height="50" relative="1" as="geometry">
            <mxPoint x="1070" y="701" as="sourcePoint" />
            <mxPoint x="1015" y="761" as="targetPoint" />
          </mxGeometry>
        </mxCell>
        <mxCell id="RcjGKaYH8sQql2n4OETO-45" value="&lt;u&gt;id&lt;/u&gt;" style="ellipse;whiteSpace=wrap;html=1;" vertex="1" parent="1">
          <mxGeometry x="900" y="760" width="110" height="60" as="geometry" />
        </mxCell>
        <mxCell id="RcjGKaYH8sQql2n4OETO-70" style="edgeStyle=orthogonalEdgeStyle;rounded=0;orthogonalLoop=1;jettySize=auto;html=1;entryX=1;entryY=0.5;entryDx=0;entryDy=0;" edge="1" parent="1" source="RcjGKaYH8sQql2n4OETO-46" target="RcjGKaYH8sQql2n4OETO-37">
          <mxGeometry relative="1" as="geometry" />
        </mxCell>
        <mxCell id="RcjGKaYH8sQql2n4OETO-46" value="villabetel_area" style="rounded=0;whiteSpace=wrap;html=1;" vertex="1" parent="1">
          <mxGeometry x="1120" y="571" width="170" height="60" as="geometry" />
        </mxCell>
        <mxCell id="RcjGKaYH8sQql2n4OETO-47" value="name" style="ellipse;whiteSpace=wrap;html=1;" vertex="1" parent="1">
          <mxGeometry x="1323" y="571" width="120" height="60" as="geometry" />
        </mxCell>
        <mxCell id="RcjGKaYH8sQql2n4OETO-48" value="" style="endArrow=none;html=1;rounded=0;exitX=1;exitY=0.5;exitDx=0;exitDy=0;entryX=0;entryY=0.5;entryDx=0;entryDy=0;" edge="1" parent="1" source="RcjGKaYH8sQql2n4OETO-46" target="RcjGKaYH8sQql2n4OETO-47">
          <mxGeometry width="50" height="50" relative="1" as="geometry">
            <mxPoint x="1085" y="711" as="sourcePoint" />
            <mxPoint x="1150" y="640" as="targetPoint" />
          </mxGeometry>
        </mxCell>
        <mxCell id="RcjGKaYH8sQql2n4OETO-49" value="&lt;u&gt;id&lt;/u&gt;" style="ellipse;whiteSpace=wrap;html=1;" vertex="1" parent="1">
          <mxGeometry x="1165" y="480" width="110" height="60" as="geometry" />
        </mxCell>
        <mxCell id="RcjGKaYH8sQql2n4OETO-50" value="" style="endArrow=none;html=1;rounded=0;exitX=0.5;exitY=1;exitDx=0;exitDy=0;entryX=0.5;entryY=0;entryDx=0;entryDy=0;" edge="1" parent="1" source="RcjGKaYH8sQql2n4OETO-49" target="RcjGKaYH8sQql2n4OETO-46">
          <mxGeometry width="50" height="50" relative="1" as="geometry">
            <mxPoint x="985" y="701" as="sourcePoint" />
            <mxPoint x="965" y="770" as="targetPoint" />
          </mxGeometry>
        </mxCell>
        <mxCell id="RcjGKaYH8sQql2n4OETO-51" value="villabetel_area" style="rounded=0;whiteSpace=wrap;html=1;" vertex="1" parent="1">
          <mxGeometry x="550" y="405.5" width="170" height="60" as="geometry" />
        </mxCell>
        <mxCell id="RcjGKaYH8sQql2n4OETO-52" value="nickname" style="ellipse;whiteSpace=wrap;html=1;" vertex="1" parent="1">
          <mxGeometry x="587.5" y="485" width="95" height="50" as="geometry" />
        </mxCell>
        <mxCell id="RcjGKaYH8sQql2n4OETO-53" value="" style="endArrow=none;html=1;rounded=0;exitX=0.5;exitY=1;exitDx=0;exitDy=0;entryX=0.5;entryY=0;entryDx=0;entryDy=0;" edge="1" parent="1" source="RcjGKaYH8sQql2n4OETO-51" target="RcjGKaYH8sQql2n4OETO-52">
          <mxGeometry width="50" height="50" relative="1" as="geometry">
            <mxPoint x="515" y="545.5" as="sourcePoint" />
            <mxPoint x="580" y="474.5" as="targetPoint" />
          </mxGeometry>
        </mxCell>
        <mxCell id="RcjGKaYH8sQql2n4OETO-54" value="&lt;u&gt;id&lt;/u&gt;" style="ellipse;whiteSpace=wrap;html=1;" vertex="1" parent="1">
          <mxGeometry x="530" y="330" width="95" height="50" as="geometry" />
        </mxCell>
        <mxCell id="RcjGKaYH8sQql2n4OETO-55" value="" style="endArrow=none;html=1;rounded=0;exitX=0.5;exitY=1;exitDx=0;exitDy=0;entryX=0.25;entryY=0;entryDx=0;entryDy=0;" edge="1" parent="1" source="RcjGKaYH8sQql2n4OETO-54" target="RcjGKaYH8sQql2n4OETO-51">
          <mxGeometry width="50" height="50" relative="1" as="geometry">
            <mxPoint x="415" y="535.5" as="sourcePoint" />
            <mxPoint x="395" y="604.5" as="targetPoint" />
          </mxGeometry>
        </mxCell>
        <mxCell id="RcjGKaYH8sQql2n4OETO-56" value="&lt;u&gt;user_profile_id&lt;/u&gt;" style="ellipse;whiteSpace=wrap;html=1;" vertex="1" parent="1">
          <mxGeometry x="640" y="316" width="115" height="60" as="geometry" />
        </mxCell>
        <mxCell id="RcjGKaYH8sQql2n4OETO-57" value="" style="endArrow=none;html=1;rounded=0;exitX=0.5;exitY=1;exitDx=0;exitDy=0;entryX=0.75;entryY=0;entryDx=0;entryDy=0;" edge="1" parent="1" source="RcjGKaYH8sQql2n4OETO-56" target="RcjGKaYH8sQql2n4OETO-51">
          <mxGeometry width="50" height="50" relative="1" as="geometry">
            <mxPoint x="588" y="390" as="sourcePoint" />
            <mxPoint x="603" y="416" as="targetPoint" />
          </mxGeometry>
        </mxCell>
        <mxCell id="RcjGKaYH8sQql2n4OETO-59" value="n" style="text;html=1;align=center;verticalAlign=middle;resizable=0;points=[];autosize=1;strokeColor=none;fillColor=none;" vertex="1" parent="1">
          <mxGeometry x="725" y="410" width="30" height="30" as="geometry" />
        </mxCell>
        <mxCell id="RcjGKaYH8sQql2n4OETO-68" value="1" style="text;html=1;align=center;verticalAlign=middle;resizable=0;points=[];autosize=1;strokeColor=none;fillColor=none;" vertex="1" parent="1">
          <mxGeometry x="860" y="631" width="30" height="30" as="geometry" />
        </mxCell>
        <mxCell id="RcjGKaYH8sQql2n4OETO-69" value="n" style="text;html=1;align=center;verticalAlign=middle;resizable=0;points=[];autosize=1;strokeColor=none;fillColor=none;" vertex="1" parent="1">
          <mxGeometry x="750" y="640" width="30" height="30" as="geometry" />
        </mxCell>
        <mxCell id="RcjGKaYH8sQql2n4OETO-71" value="1" style="text;html=1;align=center;verticalAlign=middle;resizable=0;points=[];autosize=1;strokeColor=none;fillColor=none;" vertex="1" parent="1">
          <mxGeometry x="1090" y="571" width="30" height="30" as="geometry" />
        </mxCell>
        <mxCell id="RcjGKaYH8sQql2n4OETO-72" value="n" style="text;html=1;align=center;verticalAlign=middle;resizable=0;points=[];autosize=1;strokeColor=none;fillColor=none;" vertex="1" parent="1">
          <mxGeometry x="1060" y="631" width="30" height="30" as="geometry" />
        </mxCell>
      </root>
    </mxGraphModel>
  </diagram>
</mxfile>
